<svg xmlns="http://www.w3.org/2000/svg" height="338.293" width="377.96"><path d="M370.07 318.003l-13.785-39.416h-11.078v59.706h7.766V291.07l16.843 47.224h8.113v-59.706h-7.86v39.416" fill="#3f4545"/><path d="M24.27-.004v169.905H0V-.004h24.27M79.75 62.41V169.9H55.48V62.41h24.27m65.885 0V169.9H121.36V62.41h24.275M201.112-.004v169.905h-24.275V-.004h24.275m65.88 62.414V169.9h-24.27V62.41h24.27m55.48 0V169.9h-24.273V62.41h24.273m55.481 0V169.9h-24.272V62.41h24.272" fill="#ed1443"/><path d="M7.86 233.399h15.486v27.693h7.86v-59.707h-7.86v25.118H7.86v-25.118H0v59.707h7.86v-27.693m47.992 21.602c-4.015 0-9.353-2.464-9.353-23.762 0-21.299 5.338-23.763 9.353-23.763s9.351 2.464 9.351 23.763c0 21.298-5.336 23.762-9.351 23.762zm0-54.421c-11.422 0-17.213 10.316-17.213 30.659 0 20.34 5.791 30.657 17.213 30.657 11.423 0 17.215-10.316 17.215-30.657 0-20.343-5.792-30.659-17.215-30.659m40.652 61.316c10.314 0 16.324-7.62 16.488-20.907l.01-.8h-7.861l-.01.779c-.145 9.704-2.806 14.033-8.627 14.033-7.02 0-9.756-6.662-9.756-23.762s2.736-23.763 9.756-23.763c4.6 0 7.088 3.915 7.825 12.321l.065.72h7.858l-.068-.853c-.97-12.484-6.393-19.084-15.68-19.084-11.856 0-17.618 10.028-17.618 30.659 0 20.63 5.762 30.657 17.618 30.657m55.449-.804v-59.707h-7.861v25.118h-15.486v-25.118h-7.86v59.707h7.86v-27.693h15.486v27.693h7.861m24.275-34.565c-5.252-3.558-9.788-6.63-9.788-12.195 0-4.1 2.885-6.856 7.179-6.856 4.881 0 7.622 3.276 8.148 9.739l.058.726h7.356l-.038-.828c-.495-10.353-6.146-16.533-15.122-16.533-8.852 0-14.798 5.753-14.798 14.316 0 9.178 6.613 13.801 13.008 18.273 5.316 3.718 10.338 7.231 10.338 13.043 0 5.504-2.926 8.79-7.822 8.79-5.512 0-8.632-3.673-8.788-10.34l-.019-.771h-7.375l.014.804c.173 10.449 6.265 17.201 15.524 17.201 9.966 0 15.684-5.687 15.684-15.604 0-10.581-7.203-15.46-13.559-19.765m45.139 14.441C221.22 250.672 218.56 255 212.74 255c-7.019 0-9.755-6.662-9.755-23.762s2.736-23.763 9.755-23.763c4.6 0 7.088 3.915 7.825 12.321l.064.72h7.859l-.067-.853c-.972-12.484-6.394-19.084-15.681-19.084-11.855 0-17.617 10.028-17.617 30.659 0 20.63 5.762 30.657 17.617 30.657 10.313 0 16.324-7.62 16.49-20.907l.01-.8h-7.863l-.01.779m23.477-7.568h15.484v27.693h7.861v-59.707h-7.861v25.118h-15.484v-25.118h-7.863v59.707h7.863v-27.693m63.457 11.606v-43.62h-7.864v43.458c0 7.026-2.386 10.158-7.742 10.158-5.351 0-7.74-3.132-7.74-10.158v-43.458h-7.863v43.62c0 10.892 5.543 16.891 15.603 16.891 10.062 0 15.606-5.999 15.606-16.89m35.926 9.189H325.39v-52.81h-7.863v59.707h26.699v-6.897m12.477 0v-20.796h14.974v-6.896h-14.974V208.28h20.286v-6.896h-28.148v59.707h29.114v-6.897h-21.252M7.86 285.483h2.592c8.676 0 13.7 3.756 13.7 22.956s-5.024 22.957-13.7 22.957H7.861zm3.719-6.896H0v59.706h11.579c14.132 0 20.433-9.209 20.433-29.854 0-20.646-6.301-29.852-20.433-29.852m40.129 32.012h14.974v-6.895H51.708v-18.221h20.287v-6.896H43.846v59.706h29.115v-6.897H51.708v-20.797m41.232-25.116h4.68c8.008 0 11.125 2.597 11.125 9.272 0 6.669-3.117 9.269-11.125 9.269h-4.68zm23.666 8.95c0-9.628-6.565-15.846-16.728-15.846h-14.8v59.706h7.862v-27.242l6.86-.27 9.148 26.975.183.537h8.273l-9.928-29.142c5.893-2.371 9.13-7.583 9.13-14.718m47.724 17.683l-9.607-33.53H143.36v59.707h7.36v-47.718l10.811 35.707h5.37l10.814-35.707v47.718h7.36v-59.706h-11.37l-9.377 33.529m41.572-1.517h14.97v-6.895H205.9v-18.221h20.283v-6.896h-28.144v59.706h29.109v-6.897H205.9v-20.797m41.017-25.116h2.592c8.678 0 13.699 3.756 13.699 22.956s-5.021 22.957-13.699 22.957h-2.592zm3.722-6.896h-11.582v59.706h11.582c14.13 0 20.43-9.209 20.43-29.854 0-20.646-6.3-29.852-20.43-29.852m32.289 59.706h7.861v-59.706h-7.861zm29.052-27.694h14.973v-6.895H311.98v-18.221h20.287v-6.896h-28.148v59.706h29.113v-6.897H311.98v-20.797" fill="#3f4545"/></svg>